<svg width="9" height="12" viewBox="0 0 9 12" fill="none" xmlns="http://www.w3.org/2000/svg">
<path fill-rule="evenodd" clip-rule="evenodd" d="M4.11238 12C3.99121 12 3.875 11.9548 3.78932 11.8745C3.70364 11.7941 3.6555 11.6851 3.6555 11.5715L3.6555 1.46381L0.780828 4.16107C0.695039 4.24154 0.578684 4.28675 0.457359 4.28675C0.336035 4.28675 0.219679 4.24154 0.13389 4.16107C0.0481005 4.0806 -9.53674e-05 3.97146 -9.53674e-05 3.85766C-9.53674e-05 3.74386 0.0481005 3.63472 0.13389 3.55425L3.78891 0.1259C3.83135 0.0859919 3.88177 0.0543289 3.93727 0.0327244C3.99278 0.0111208 4.05228 0 4.11238 0C4.17247 0 4.23198 0.0111208 4.28748 0.0327244C4.34299 0.0543289 4.39341 0.0859919 4.43585 0.1259L8.09087 3.55425C8.17666 3.63472 8.22485 3.74386 8.22485 3.85766C8.22485 3.97146 8.17666 4.0806 8.09087 4.16107C8.00508 4.24154 7.88872 4.28675 7.7674 4.28675C7.64607 4.28675 7.52972 4.24154 7.44393 4.16107L4.56926 1.46381L4.56926 11.5715C4.56926 11.6851 4.52112 11.7941 4.43544 11.8745C4.34976 11.9548 4.23355 12 4.11238 12Z" fill="#FDCC78"/>
</svg>
