<svg width="42" height="42" viewBox="0 0 42 42" fill="none" xmlns="http://www.w3.org/2000/svg">
<path d="M7.69453 9.40078C7.30898 9.49102 7.55508 9.47461 7.23516 9.51562C5.86523 9.81094 6.88242 10.0734 7.69453 9.40078ZM31.7871 9.95039C31.8855 9.88477 32.2301 9.54844 31.1555 9.22031C31.2211 9.55664 30.934 9.52383 30.934 9.7125C31.7297 10.4344 32.0578 11.6895 33.075 11.952C33.2719 11.0496 32.1727 10.6066 31.7871 9.95039V9.95039ZM6.96445 9.13828C7.0875 9.86836 7.63711 8.36719 7.64531 7.83398C7.43203 7.95703 7.21875 8.08008 6.99727 8.17852C7.51406 8.44102 7.06289 8.71992 6.50508 9.13828C5.37305 10.5492 7.56328 8.03906 6.96445 9.13828V9.13828ZM21 0C9.40078 0 0 9.40078 0 21C0 32.591 9.40078 42 21 42C32.5992 42 42 32.591 42 21C42 9.40078 32.5992 0 21 0ZM21.5578 7.03828L21.6562 7.07109C21.2625 7.57969 23.707 9.06445 21.9516 9.1875C20.3109 9.65508 22.6406 8.76094 21.3691 8.9168C22.0418 7.98164 20.8359 7.96523 21.5578 7.03828V7.03828ZM11.5992 8.38359C11.0086 7.89141 9.15469 9.05625 9.80273 8.77734C11.4105 8.1457 9.90938 8.84297 10.2867 9.59766C9.94219 10.3113 10.1719 8.89219 9.31875 9.73711C8.70352 9.87656 7.19414 11.2711 7.38281 10.8445C7.33359 11.509 5.58633 12.2965 5.34844 13.4039C4.77422 14.9379 5.20898 13.3465 5.10234 12.7477C4.28203 11.7059 2.78906 14.5113 3.23203 15.6187C3.97852 14.3062 3.92109 15.4793 3.37969 16.0617C3.9293 17.0707 2.8793 18.3832 3.92109 19.1297C4.38047 19.2363 5.29922 17.5875 4.89727 19.302C5.17617 17.8172 5.66836 19.6547 6.46406 19.2445C6.51328 20.0238 6.99727 19.6629 7.10391 20.6062C8.43281 20.5078 9.64688 22.7555 8.06367 23.182C8.30156 23.1164 8.76914 23.5348 9.31055 23.2148C10.2293 23.9449 12.6492 24.0352 12.7148 25.8398C11.0496 26.6355 12.3047 28.8176 10.8609 29.5969C9.20391 29.3508 10.2949 31.6395 9.59766 31.377C9.87656 33.0258 7.92422 31.1637 8.67891 32.0742C10.0652 32.9273 8.07188 32.7551 8.69531 33.3785C7.99805 33.2309 9.13008 34.6746 9.31875 35.2078C10.3195 36.832 8.45742 34.8469 7.90781 34.3055C7.38281 33.2555 6.14414 31.2457 5.79961 29.5969C5.60273 27.2016 3.74883 25.5938 3.32227 23.2559C2.8957 21.9516 4.49531 19.8598 3.63398 19.1297C2.8875 18.5473 3.19102 16.5539 2.74805 15.5039C3.85547 10.7051 7.37461 6.66094 11.5992 4.26562C11.1645 4.58555 14.0848 3.43711 13.7484 3.71602C13.6582 3.92109 15.4547 2.93672 16.5375 2.78906C16.4227 2.80547 13.7238 3.77344 14.4703 3.64219C13.3137 4.2082 14.3555 3.88828 14.9297 3.60117C13.7812 4.44609 12.8953 4.2082 11.591 4.95469C10.2785 5.29922 10.5492 6.66094 9.61406 7.3418C10.1637 7.44023 11.5418 5.92266 12.3457 5.38945C14.1914 4.49531 11.4105 7.01367 13.166 5.93086C12.5754 6.48047 12.6984 7.3582 12.3375 7.6043C12.157 7.55508 13.0512 8.03086 11.5992 8.38359ZM14.4703 4.61016C14.2816 4.86445 14.0191 5.41406 13.8633 5.07773C13.65 5.18438 13.568 5.64375 13.166 5.27461C13.4039 5.10234 13.65 4.69219 13.1824 4.94648C13.3957 4.7168 15.2988 4.06875 15.1922 3.82266C15.5285 3.60937 15.4957 3.50273 15.1102 3.63398C14.9133 3.56836 15.5777 3.01055 16.4637 2.93672C16.5867 2.93672 16.6359 3.01875 16.4145 2.99414C15.0773 3.4043 15.6516 3.28945 16.5539 2.99414C16.2094 3.19102 15.9715 3.24844 15.9141 3.33867C16.8164 3.01055 15.8648 3.57656 16.0699 3.53555C15.8156 3.6668 16.1109 3.70781 15.6187 3.89648C15.709 3.82266 14.8148 4.42969 15.348 4.24922C14.8313 4.74141 14.6016 4.74961 14.4703 4.61016V4.61016ZM15.2578 5.7832C15.2742 4.9957 16.4063 4.49531 16.2668 4.4543C17.6613 3.79805 15.7828 4.47891 16.882 3.88828C17.2922 3.84727 18.1617 2.53477 19.3676 2.45273C20.6965 2.05078 20.0812 2.47734 21.0656 2.1L20.8687 2.26406C20.6965 2.28867 20.9098 2.59219 20.2863 3.05156C20.2207 3.76523 19.0969 3.43711 19.6547 4.2C19.2938 3.6832 18.7523 4.18359 19.4332 4.23281C18.7031 4.79062 17.0051 4.88906 16.193 5.81602C15.668 6.5707 15.184 6.33281 15.2578 5.7832V5.7832ZM21.0902 8.4082C20.5324 9.75352 19.991 8.21133 20.9754 7.96523C21.2215 8.09648 21.3199 8.1375 21.0902 8.4082ZM18.9902 5.71758C18.8262 5.11055 18.9574 5.43047 19.9336 5.14336C20.6062 5.62734 19.3348 5.94727 18.9902 5.71758ZM34.2645 29.7938C33.4934 28.4648 35.1996 27.2344 35.7738 26.1187C35.7 27.423 35.5359 28.7109 34.2645 29.7938ZM37.1684 14.6098C36.3316 14.6754 35.577 14.8723 34.8223 14.3965C33.0832 12.4934 35.1422 16.5457 35.7164 14.8887C37.7836 15.6762 35.6836 19.0723 34.3793 18.7195C33.6492 17.1445 32.7469 15.4137 31.1555 14.6426C32.3777 15.9961 32.9848 17.6613 34.2973 18.8836C34.3875 20.5898 36.1184 18.2602 36.0117 19.5809C36.1758 21.8531 33.4441 23.2148 33.9199 25.4953C34.9371 27.5707 31.9594 27.948 32.2957 29.8102C31.098 31.1473 29.8184 32.952 27.6691 32.6648C27.6691 31.5328 27.0949 30.573 26.9637 29.4082C25.7988 27.9316 28.1941 26.3484 26.7094 24.8062C24.9949 24.4207 27.0621 22.0582 25.2984 22.2797C24.2402 21.2215 22.6898 22.2469 21.1723 22.2551C19.2691 22.4355 17.3086 19.9172 18.1535 18.1371C17.4809 16.2832 20.2863 15.7418 20.3602 14.1094C21.7055 12.9855 23.6168 13.125 25.4379 12.8625C25.3066 14.1668 26.6848 14.175 27.7266 14.6098C28.309 13.1988 30.1219 14.8395 31.3605 13.9453C31.7871 11.8617 30.1547 13.1168 29.2195 12.4523C28.0875 10.7953 31.6395 11.5992 31.2703 10.7297C29.8922 10.7215 30.6715 9.03164 29.6953 9.975C30.573 10.1309 29.5395 10.8199 29.5641 10.0324C28.2352 9.64688 29.5148 11.5418 28.8422 11.7223C27.8168 11.2957 28.3008 12.2062 28.4074 12.3457C27.9645 13.3055 27.423 10.9348 26.168 11.0004C24.9211 9.86016 25.6758 11.5172 26.7586 11.7879C26.5289 11.8535 26.8898 12.7969 26.6027 12.3949C25.7086 11.1645 24.0105 10.3441 23.0016 11.8535C22.8949 13.2645 20.0238 13.6664 20.4832 12.0176C19.8105 10.3113 22.5668 11.9684 22.3125 10.6066C20.5406 9.43359 22.7965 9.81094 23.3953 8.71172C24.757 8.75273 23.4527 7.59609 24.0926 7.25977C24.027 8.51484 25.1344 8.27695 26.0121 8.03906C25.7988 7.31719 26.5371 7.3418 26.0859 6.74297C28.1203 5.93086 24.5355 7.12031 25.2574 5.34023C24.3797 4.7332 24.8883 6.67734 25.2574 6.88242C25.282 7.48125 24.7734 8.21953 24.0762 6.96445C23.059 7.62891 23.1656 6.2918 23.1 6.43125C22.9852 5.91445 23.8711 5.88984 23.8793 4.9875C23.8055 4.41328 23.8219 4.10977 24.232 4.07695C24.2648 4.15898 25.9137 4.18359 26.4961 4.86445C24.9047 4.54453 26.2582 5.12695 26.9719 5.45508C26.209 4.85625 27.2754 5.45508 26.652 4.77422C26.898 4.82344 25.9711 3.83906 26.9227 4.70039C26.4059 4.08516 27.9316 4.26563 27.0293 3.80625C28.35 4.17539 27.5707 3.83906 26.7914 3.50273C24.6422 2.22305 30.5895 5.23359 28.1613 3.89648C29.7117 4.23281 24.8473 2.69883 27.0621 3.37148C26.2172 3.00234 27.0375 3.20742 27.8004 3.44531C26.4305 3.01875 24.3797 2.22305 24.4617 2.19023C24.9375 2.22305 25.4051 2.32969 25.8563 2.46094C27.259 2.8793 25.4543 2.3625 25.8398 2.3707C30.6633 3.60938 34.8879 6.84141 37.4555 11.066C38.0543 11.6977 39.6867 15.873 38.8336 14.0191C39.2191 15.4957 39.2766 17.0871 39.4816 18.5965C39.0551 18.1207 38.5793 16.3652 38.1691 15.3891C37.9969 15.7664 37.8 14.8559 37.1684 14.6098Z" fill="#363636"/>
</svg>
