<svg width="32" height="29" viewBox="0 0 32 29" fill="none" xmlns="http://www.w3.org/2000/svg">
<g clip-path="url(#clip0)">
<path d="M16 0C12.1339 0 9 3.13389 9 7C9 10.1256 13.575 15.8222 15.3278 17.89C15.6828 18.3089 16.3178 18.3089 16.6722 17.89C18.425 15.8222 23 10.1256 23 7C23 3.13389 19.8661 0 16 0ZM16 9.33333C14.7111 9.33333 13.6667 8.28889 13.6667 7C13.6667 5.71111 14.7111 4.66667 16 4.66667C17.2889 4.66667 18.3333 5.71111 18.3333 7C18.3333 8.28889 17.2889 9.33333 16 9.33333ZM1.11778 11.9972C0.787877 12.1292 0.505073 12.3569 0.305839 12.6511C0.106605 12.9453 7.90115e-05 13.2925 0 13.6478L0 27.5544C0 28.1833 0.635 28.6133 1.21889 28.38L8.88889 24.8889V11.94C8.39778 11.0522 7.99611 10.1878 7.70833 9.36111L1.11778 11.9972ZM16 19.9817C15.2183 19.9817 14.4789 19.6383 13.9717 19.0394C12.8794 17.7506 11.7178 16.2828 10.6667 14.7772V24.8883L21.3333 28.4439V14.7778C20.2822 16.2828 19.1211 17.7511 18.0283 19.04C17.5211 19.6383 16.7817 19.9817 16 19.9817ZM30.7811 8.95333L23.1111 12.4444V28.4444L30.8822 25.3361C31.2122 25.2042 31.495 24.9765 31.6943 24.6823C31.8935 24.3881 32 24.0409 32 23.6856V9.77889C32 9.15 31.365 8.72 30.7811 8.95333Z" fill="white"/>
</g>
<defs>
<clipPath id="clip0">
<rect width="32" height="28.4444" fill="white"/>
</clipPath>
</defs>
</svg>
