<svg width="28" height="28" viewBox="0 0 28 28" fill="none" xmlns="http://www.w3.org/2000/svg">
<path d="M27.6191 24.208L22.1662 18.7562C21.9201 18.5101 21.5866 18.3734 21.2366 18.3734H20.3451C21.8545 16.4429 22.7514 14.0153 22.7514 11.3739C22.7514 5.09086 17.6594 0 11.3759 0C5.09226 0 -0.000244141 5.09086 -0.000244141 11.3739C-0.000244141 17.657 5.09171 22.7478 11.3759 22.7478C14.0173 22.7478 16.4459 21.8509 18.3764 20.3416V21.233C18.3764 21.583 18.5131 21.9166 18.7592 22.1627L24.2121 27.6145C24.7262 28.1285 25.5574 28.1285 26.066 27.6145L27.6137 26.0668C28.1277 25.5527 28.1277 24.722 27.6191 24.208ZM11.3759 19.2478C7.02601 19.2478 3.50085 15.7292 3.50085 11.3739C3.50085 7.02461 7.01999 3.5 11.3759 3.5C15.7257 3.5 19.2509 7.01859 19.2509 11.3739C19.2509 15.7232 15.7317 19.2478 11.3759 19.2478ZM11.3769 6.125C9.14679 6.125 7.33882 7.93242 7.33882 10.1626C7.33882 11.9651 9.97804 15.2513 10.9892 16.444C11.0366 16.5007 11.0959 16.5464 11.1629 16.5777C11.2299 16.609 11.303 16.6253 11.3769 16.6253C11.4509 16.6253 11.524 16.609 11.591 16.5777C11.6579 16.5464 11.7173 16.5007 11.7647 16.444C12.7759 15.2513 15.4151 11.9656 15.4151 10.1626C15.4151 7.93242 13.6071 6.125 11.3769 6.125ZM11.3769 11.375C10.6518 11.375 10.0644 10.7871 10.0644 10.0625C10.0644 9.33734 10.6523 8.75 11.3769 8.75C12.1016 8.75 12.6894 9.33734 12.6894 10.0625C12.6894 10.7871 12.1016 11.375 11.3769 11.375Z" fill="white"/>
</svg>
