<svg width="30" height="32" viewBox="0 0 30 32" fill="none" xmlns="http://www.w3.org/2000/svg">
<g clip-path="url(#clip0)">
<path d="M17.6649 26H14.0159C13.774 26 13.5419 26.1054 13.3709 26.2929C13.1998 26.4804 13.1037 26.7348 13.1037 27V29C13.1037 29.2652 13.1998 29.5196 13.3709 29.7071C13.5419 29.8946 13.774 30 14.0159 30H17.6649C17.9068 30 18.1388 29.8946 18.3099 29.7071C18.481 29.5196 18.5771 29.2652 18.5771 29V27C18.5771 26.7348 18.481 26.4804 18.3099 26.2929C18.1388 26.1054 17.9068 26 17.6649 26ZM1.24464 10H3.98134V29C3.98134 29.2652 4.07745 29.5196 4.24853 29.7071C4.41961 29.8946 4.65164 30 4.89358 30H6.71804C6.95998 30 7.19201 29.8946 7.36309 29.7071C7.53417 29.5196 7.63028 29.2652 7.63028 29V10H10.367C11.1772 10 11.586 8.9225 11.0118 8.29313L6.45064 2.29312C6.27958 2.10573 6.04765 2.00046 5.80581 2.00046C5.56397 2.00046 5.33203 2.10573 5.16097 2.29312L0.599804 8.29313C0.0273777 8.92125 0.433322 10 1.24464 10ZM24.9627 10H14.0159C13.774 10 13.5419 10.1054 13.3709 10.2929C13.1998 10.4804 13.1037 10.7348 13.1037 11V13C13.1037 13.2652 13.1998 13.5196 13.3709 13.7071C13.5419 13.8946 13.774 14 14.0159 14H24.9627C25.2047 14 25.4367 13.8946 25.6078 13.7071C25.7788 13.5196 25.875 13.2652 25.875 13V11C25.875 10.7348 25.7788 10.4804 25.6078 10.2929C25.4367 10.1054 25.2047 10 24.9627 10ZM21.3138 18H14.0159C13.774 18 13.5419 18.1054 13.3709 18.2929C13.1998 18.4804 13.1037 18.7348 13.1037 19V21C13.1037 21.2652 13.1998 21.5196 13.3709 21.7071C13.5419 21.8946 13.774 22 14.0159 22H21.3138C21.5557 22 21.7878 21.8946 21.9588 21.7071C22.1299 21.5196 22.226 21.2652 22.226 21V19C22.226 18.7348 22.1299 18.4804 21.9588 18.2929C21.7878 18.1054 21.5557 18 21.3138 18ZM28.6117 2H14.0159C13.774 2 13.5419 2.10536 13.3709 2.29289C13.1998 2.48043 13.1037 2.73478 13.1037 3V5C13.1037 5.26522 13.1998 5.51957 13.3709 5.70711C13.5419 5.89464 13.774 6 14.0159 6H28.6117C28.8536 6 29.0856 5.89464 29.2567 5.70711C29.4278 5.51957 29.5239 5.26522 29.5239 5V3C29.5239 2.73478 29.4278 2.48043 29.2567 2.29289C29.0856 2.10536 28.8536 2 28.6117 2Z" fill="white"/>
</g>
<defs>
<clipPath id="clip0">
<rect width="29.1915" height="32" fill="white" transform="translate(0.33252)"/>
</clipPath>
</defs>
</svg>
