<svg width="32" height="33" viewBox="0 0 32 33" fill="none" xmlns="http://www.w3.org/2000/svg">
<path d="M5.8625 7.23049C5.56875 7.29924 5.75625 7.28674 5.5125 7.31799C4.46875 7.54299 5.24375 7.74299 5.8625 7.23049ZM24.2188 7.64924C24.2938 7.59924 24.5562 7.34299 23.7375 7.09299C23.7875 7.34924 23.5688 7.32424 23.5688 7.46799C24.175 8.01799 24.425 8.97424 25.2 9.17424C25.35 8.48674 24.5125 8.14924 24.2188 7.64924ZM5.30625 7.03049C5.4 7.58674 5.81875 6.44299 5.825 6.03674C5.6625 6.13049 5.5 6.22424 5.33125 6.29924C5.725 6.49924 5.38125 6.71174 4.95625 7.03049C4.09375 8.10549 5.7625 6.19299 5.30625 7.03049ZM16 0.0679932C7.1625 0.0679932 0 7.23049 0 16.068C0 24.8992 7.1625 32.068 16 32.068C24.8375 32.068 32 24.8992 32 16.068C32 7.23049 24.8375 0.0679932 16 0.0679932ZM16.425 5.43049L16.5 5.45549C16.2 5.84299 18.0625 6.97424 16.725 7.06799C15.475 7.42424 17.25 6.74299 16.2812 6.86174C16.7938 6.14924 15.875 6.13674 16.425 5.43049ZM8.8375 6.45549C8.3875 6.08049 6.975 6.96799 7.46875 6.75549C8.69375 6.27424 7.55 6.80549 7.8375 7.38049C7.575 7.92424 7.75 6.84299 7.1 7.48674C6.63125 7.59299 5.48125 8.65549 5.625 8.33049C5.5875 8.83674 4.25625 9.43674 4.075 10.2805C3.6375 11.4492 3.96875 10.2367 3.8875 9.78049C3.2625 8.98674 2.125 11.1242 2.4625 11.968C3.03125 10.968 2.9875 11.8617 2.575 12.3055C2.99375 13.0742 2.19375 14.0742 2.9875 14.643C3.3375 14.7242 4.0375 13.468 3.73125 14.7742C3.94375 13.643 4.31875 15.043 4.925 14.7305C4.9625 15.3242 5.33125 15.0492 5.4125 15.768C6.425 15.693 7.35 17.4055 6.14375 17.7305C6.325 17.6805 6.68125 17.9992 7.09375 17.7555C7.79375 18.3117 9.6375 18.3805 9.6875 19.7555C8.41875 20.3617 9.375 22.0242 8.275 22.618C7.0125 22.4305 7.84375 24.1742 7.3125 23.9742C7.525 25.2305 6.0375 23.8117 6.6125 24.5055C7.66875 25.1555 6.15 25.0242 6.625 25.4992C6.09375 25.3867 6.95625 26.4867 7.1 26.893C7.8625 28.1305 6.44375 26.618 6.025 26.2055C5.625 25.4055 4.68125 23.8742 4.41875 22.618C4.26875 20.793 2.85625 19.568 2.53125 17.7867C2.20625 16.793 3.425 15.1992 2.76875 14.643C2.2 14.1992 2.43125 12.6805 2.09375 11.8805C2.9375 8.22424 5.61875 5.14299 8.8375 3.31799C8.50625 3.56174 10.7313 2.68674 10.475 2.89924C10.4062 3.05549 11.775 2.30549 12.6 2.19299C12.5125 2.20549 10.4562 2.94299 11.025 2.84299C10.1437 3.27424 10.9375 3.03049 11.375 2.81174C10.5 3.45549 9.825 3.27424 8.83125 3.84299C7.83125 4.10549 8.0375 5.14299 7.325 5.66174C7.74375 5.73674 8.79375 4.58049 9.40625 4.17424C10.8125 3.49299 8.69375 5.41174 10.0312 4.58674C9.58125 5.00549 9.675 5.67424 9.4 5.86174C9.2625 5.82424 9.94375 6.18674 8.8375 6.45549ZM11.025 3.58049C10.8812 3.77424 10.6812 4.19299 10.5625 3.93674C10.4 4.01799 10.3375 4.36799 10.0312 4.08674C10.2125 3.95549 10.4 3.64299 10.0437 3.83674C10.2063 3.66174 11.6562 3.16799 11.575 2.98049C11.8313 2.81799 11.8062 2.73674 11.5125 2.83674C11.3625 2.78674 11.8687 2.36174 12.5437 2.30549C12.6375 2.30549 12.675 2.36799 12.5063 2.34924C11.4875 2.66174 11.925 2.57424 12.6125 2.34924C12.35 2.49924 12.1687 2.54299 12.125 2.61174C12.8125 2.36174 12.0875 2.79299 12.2437 2.76174C12.05 2.86174 12.275 2.89299 11.9 3.03674C11.9688 2.98049 11.2875 3.44299 11.6938 3.30549C11.3 3.68049 11.125 3.68674 11.025 3.58049ZM11.625 4.47424C11.6375 3.87424 12.5 3.49299 12.3938 3.46174C13.4563 2.96174 12.025 3.48049 12.8625 3.03049C13.175 2.99924 13.8375 1.99924 14.7563 1.93674C15.7688 1.63049 15.3 1.95549 16.05 1.66799L15.9 1.79299C15.7687 1.81174 15.9313 2.04299 15.4563 2.39299C15.4062 2.93674 14.55 2.68674 14.975 3.26799C14.7 2.87424 14.2875 3.25549 14.8062 3.29299C14.25 3.71799 12.9562 3.79299 12.3375 4.49924C11.9375 5.07424 11.5688 4.89299 11.625 4.47424ZM16.0688 6.47424C15.6438 7.49924 15.2312 6.32424 15.9812 6.13674C16.1688 6.23674 16.2437 6.26799 16.0688 6.47424ZM14.4688 4.42424C14.3438 3.96174 14.4438 4.20549 15.1875 3.98674C15.7 4.35549 14.7312 4.59924 14.4688 4.42424ZM26.1063 22.768C25.5188 21.7555 26.8188 20.818 27.2563 19.968C27.2 20.9617 27.075 21.943 26.1063 22.768ZM28.3188 11.1992C27.6812 11.2492 27.1063 11.3992 26.5312 11.0367C25.2062 9.58674 26.775 12.6742 27.2125 11.4117C28.7875 12.0117 27.1875 14.5992 26.1938 14.3305C25.6375 13.1305 24.95 11.8117 23.7375 11.2242C24.6687 12.2555 25.1313 13.5242 26.1313 14.4555C26.2 15.7555 27.5187 13.9805 27.4375 14.9867C27.5625 16.718 25.4813 17.7555 25.8438 19.493C26.6187 21.0742 24.35 21.3617 24.6063 22.7805C23.6938 23.7992 22.7188 25.1742 21.0812 24.9555C21.0812 24.093 20.6438 23.3617 20.5438 22.4742C19.6562 21.3492 21.4813 20.143 20.35 18.968C19.0438 18.6742 20.6187 16.8742 19.275 17.043C18.4688 16.2367 17.2875 17.018 16.1313 17.0242C14.6813 17.1617 13.1875 15.243 13.8313 13.8867C13.3188 12.4742 15.4563 12.0617 15.5125 10.818C16.5375 9.96174 17.9937 10.068 19.3813 9.86799C19.2812 10.8617 20.3312 10.868 21.125 11.1992C21.5688 10.1242 22.95 11.3742 23.8937 10.693C24.2188 9.10549 22.975 10.0617 22.2625 9.55549C21.4 8.29299 24.1063 8.90549 23.825 8.24299C22.775 8.23674 23.3687 6.94924 22.625 7.66799C23.2938 7.78674 22.5063 8.31174 22.525 7.71174C21.5125 7.41799 22.4875 8.86174 21.975 8.99924C21.1938 8.67424 21.5625 9.36799 21.6437 9.47424C21.3062 10.2055 20.8937 8.39924 19.9375 8.44924C18.9875 7.58049 19.5625 8.84299 20.3875 9.04924C20.2125 9.09924 20.4875 9.81799 20.2687 9.51174C19.5875 8.57424 18.2937 7.94924 17.525 9.09924C17.4438 10.1742 15.2562 10.4805 15.6062 9.22424C15.0938 7.92424 17.1938 9.18674 17 8.14924C15.65 7.25549 17.3688 7.54299 17.825 6.70549C18.8625 6.73674 17.8688 5.85549 18.3563 5.59924C18.3063 6.55549 19.15 6.37424 19.8188 6.19299C19.6562 5.64299 20.2188 5.66174 19.875 5.20549C21.425 4.58674 18.6938 5.49299 19.2437 4.13674C18.575 3.67424 18.9625 5.15549 19.2437 5.31174C19.2625 5.76799 18.875 6.33049 18.3438 5.37424C17.5688 5.88049 17.65 4.86174 17.6 4.96799C17.5125 4.57424 18.1875 4.55549 18.1938 3.86799C18.1375 3.43049 18.15 3.19924 18.4625 3.17424C18.4875 3.23674 19.7437 3.25549 20.1875 3.77424C18.975 3.53049 20.0062 3.97424 20.55 4.22424C19.9688 3.76799 20.7812 4.22424 20.3062 3.70549C20.4937 3.74299 19.7875 2.99299 20.5125 3.64924C20.1188 3.18049 21.2812 3.31799 20.5938 2.96799C21.6 3.24924 21.0063 2.99299 20.4125 2.73674C18.775 1.76174 23.3062 4.05549 21.4562 3.03674C22.6375 3.29299 18.9312 2.12424 20.6187 2.63674C19.975 2.35549 20.6 2.51174 21.1812 2.69299C20.1375 2.36799 18.575 1.76174 18.6375 1.73674C19 1.76174 19.3563 1.84299 19.7 1.94299C20.7688 2.26174 19.3937 1.86799 19.6875 1.87424C23.3625 2.81799 26.5813 5.28049 28.5375 8.49924C28.9937 8.98049 30.2375 12.1617 29.5875 10.7492C29.8813 11.8742 29.925 13.0867 30.0812 14.2367C29.7562 13.8742 29.3937 12.5367 29.0812 11.793C28.95 12.0805 28.8 11.3867 28.3188 11.1992Z" fill="white"/>
</svg>
