<svg width="48" height="48" viewBox="0 0 48 48" fill="none" xmlns="http://www.w3.org/2000/svg">
<circle cx="24" cy="24" r="24" fill="#121212"/>
<g filter="url(#filter0_d)">
<path d="M34.7703 27.2005C35.0719 27.6353 35.5051 27.9622 36.006 28.1335C36.5068 28.3048 37.0499 28.3115 37.5545 28.1527C38.0597 27.9939 38.501 27.6778 38.8138 27.2507C39.126 26.8235 39.2942 26.3076 39.2929 25.7782C39.2942 25.2488 39.126 24.7329 38.8138 24.3057C38.501 23.8786 38.0597 23.5626 37.5545 23.4037C37.0499 23.2449 36.5068 23.2517 36.006 23.423C35.5051 23.5943 35.0719 23.9211 34.7703 24.356H33.6041C33.6041 22.123 32.8928 20.0892 31.6124 18.3967L33.5184 16.4909C34.3147 16.6331 35.1259 16.4055 35.7372 15.8224C36.6906 14.8411 36.6906 13.2624 35.7372 12.2668C34.756 11.3139 33.1771 11.3139 32.1815 12.2668C31.5981 12.8784 31.371 13.689 31.5131 14.4855L29.6071 16.3913C28.2988 15.4099 26.7627 14.7557 25.0702 14.514V12.5228C25.5046 12.2208 25.8317 11.7877 26.003 11.2868C26.1743 10.7859 26.1811 10.2433 26.0222 9.73833C25.8633 9.23332 25.5474 8.79227 25.1204 8.47955C24.6928 8.16684 24.177 7.99881 23.6476 8.00001C23.1182 7.99881 22.6024 8.16684 22.1748 8.47955C21.7478 8.79227 21.4319 9.23332 21.273 9.73833C21.1141 10.2433 21.121 10.7859 21.2923 11.2868C21.4636 11.7877 21.7906 12.2208 22.2251 12.5228V14.514C20.9453 14.6988 19.7506 15.1113 18.6694 15.7371L17.0905 13.4757C17.3611 12.7361 17.2897 11.8828 16.8062 11.2001C16.6188 10.9318 16.3804 10.7031 16.1043 10.5271C15.8281 10.3511 15.5202 10.2313 15.1981 10.1745C14.8754 10.1177 14.5452 10.125 14.2256 10.196C13.9059 10.2671 13.6037 10.4005 13.3355 10.5885C12.2122 11.3708 11.9279 12.921 12.7242 14.0446C13.2077 14.7415 13.9761 15.1113 14.7581 15.1113L16.4363 17.5007C15.825 18.1123 15.3415 18.7949 14.9288 19.5487C14.4806 19.3735 13.9909 19.3314 13.5193 19.4272C13.0476 19.5231 12.6137 19.7529 12.2693 20.0892C11.316 21.0848 11.316 22.6492 12.2693 23.6448C12.6814 24.0288 13.1791 24.2564 13.6912 24.356C13.6912 25.124 13.7911 25.8636 13.9475 26.5747L12.0843 27.0725C11.4866 26.5747 10.6618 26.3614 9.83695 26.5747C9.19954 26.7482 8.6571 27.1679 8.32877 27.7413C8.00045 28.3148 7.91418 28.995 8.08734 29.6325C8.26112 30.27 8.68068 30.8125 9.25416 31.1405C9.82764 31.4686 10.5079 31.5554 11.1453 31.3819C11.9558 31.1544 12.5678 30.557 12.8235 29.8174L14.9716 29.2343C15.6115 30.3579 16.4649 31.3535 17.4604 32.1784L15.8957 35.0229C15.1137 35.1367 14.4024 35.5776 13.9903 36.3314C13.8352 36.619 13.7383 36.9343 13.7048 37.2594C13.6719 37.5845 13.703 37.9129 13.7967 38.2259C13.8904 38.5389 14.0449 38.8303 14.2516 39.0837C14.4577 39.3369 14.7121 39.5471 15.0001 39.7021C15.2875 39.8572 15.6028 39.954 15.928 39.9872C16.2532 40.0203 16.5815 39.9891 16.8943 39.8953C17.2078 39.8015 17.4989 39.6471 17.7521 39.4407C18.0053 39.2342 18.2157 38.98 18.3709 38.6923C18.7693 37.9528 18.7551 37.0994 18.3994 36.4025L19.9212 33.6007C21.0732 34.0558 22.325 34.3118 23.6476 34.3118H23.9033C23.719 34.6815 23.6476 35.1082 23.6476 35.5634C23.7612 36.943 24.9559 37.967 26.3214 37.8674C27.6868 37.7678 28.7251 36.5589 28.6258 35.1936C28.5687 34.4824 28.2131 33.8567 27.7011 33.4442C28.3695 33.1455 29.01 32.7615 29.6071 32.3206L32.9356 35.6487C32.7929 36.4452 33.0207 37.2558 33.6041 37.8674C34.5996 38.8203 36.1642 38.8203 37.1598 37.8674C38.1553 36.9145 38.1125 35.3074 37.1598 34.3118C36.5478 33.7286 35.7372 33.5011 34.9409 33.6433L31.6124 30.3152C32.3094 29.3907 32.85 28.3383 33.1913 27.2005H34.7703ZM21.5138 24.356C20.3334 24.356 19.3807 23.4031 19.3807 22.2226C19.3807 21.0421 20.3334 20.0892 21.5138 20.0892C22.6949 20.0892 23.6476 21.0421 23.6476 22.2226C23.6476 23.4031 22.6949 24.356 21.5138 24.356ZM26.492 28.6227C25.71 28.6227 25.0702 27.9827 25.0702 27.2005C25.0702 26.4182 25.71 25.7782 26.492 25.7782C27.2747 25.7782 27.9146 26.4182 27.9146 27.2005C27.9146 27.9827 27.2747 28.6227 26.492 28.6227Z" fill="#CF002C"/>
</g>
<defs>
<filter id="filter0_d" x="4" y="8" width="39.2929" height="40" filterUnits="userSpaceOnUse" color-interpolation-filters="sRGB">
<feFlood flood-opacity="0" result="BackgroundImageFix"/>
<feColorMatrix in="SourceAlpha" type="matrix" values="0 0 0 0 0 0 0 0 0 0 0 0 0 0 0 0 0 0 127 0"/>
<feOffset dy="4"/>
<feGaussianBlur stdDeviation="2"/>
<feColorMatrix type="matrix" values="0 0 0 0 0 0 0 0 0 0 0 0 0 0 0 0 0 0 0.25 0"/>
<feBlend mode="normal" in2="BackgroundImageFix" result="effect1_dropShadow"/>
<feBlend mode="normal" in="SourceGraphic" in2="effect1_dropShadow" result="shape"/>
</filter>
</defs>
</svg>
