<svg width="227" height="48" viewBox="0 0 227 48" fill="none" xmlns="http://www.w3.org/2000/svg">
<g clip-path="url(#clip0)">
<path d="M128.74 27.541H125.341V16.9652H121.375V14.3213H132.706V16.9652H128.74V27.541ZM136.863 14.3213H144.796C146.118 14.3213 147.075 14.6235 147.666 15.2278C148.271 15.8195 148.573 16.7764 148.573 18.0983V19.798C148.573 20.843 148.397 21.6551 148.044 22.2342C147.704 22.8134 147.156 23.1974 146.401 23.3862L148.762 27.541H145.079L142.907 23.5751H140.263V27.541H136.863V14.3213ZM145.173 18.0983C145.173 17.3429 144.796 16.9652 144.04 16.9652H140.263V20.9311H144.04C144.796 20.9311 145.173 20.5534 145.173 19.798V18.0983ZM155.65 27.541H151.967L156.972 14.3213H160.749L165.754 27.541H162.071L161.221 25.1803H156.499L155.65 27.541ZM157.349 22.7252H160.371L158.86 18.2872L157.349 22.7252ZM179.36 27.3521C176.553 27.6039 174.223 27.7298 172.372 27.7298C171.139 27.7298 170.232 27.4402 169.653 26.8611C169.074 26.2819 168.784 25.3755 168.784 24.1416V18.0983C168.784 16.7764 169.08 15.8195 169.672 15.2278C170.276 14.6235 171.239 14.3213 172.561 14.3213H179.36V16.9652H173.317C172.561 16.9652 172.184 17.3429 172.184 18.0983V24.1416C172.184 24.4312 172.265 24.6641 172.429 24.8404C172.605 25.004 172.826 25.0859 173.09 25.0859C173.355 25.0859 173.644 25.0859 173.959 25.0859C174.274 25.0733 174.601 25.0607 174.941 25.0481C175.281 25.0355 175.621 25.0229 175.961 25.0103C176.313 24.9977 176.76 24.9726 177.302 24.9348C177.856 24.897 178.542 24.853 179.36 24.8026V27.3521ZM187.105 27.541H183.706V14.3213H187.105V19.5147H188.805L191.751 14.3213H195.339L191.638 20.8367L195.321 27.541H191.732L188.805 22.1587H187.105V27.541ZM209.783 27.541H199.302V14.3213H209.783V16.9652H202.701V19.5147H208.273V22.1587H202.701V24.897H209.783V27.541ZM214.122 14.3213H222.055C223.377 14.3213 224.334 14.6235 224.925 15.2278C225.53 15.8195 225.832 16.7764 225.832 18.0983V19.798C225.832 20.843 225.656 21.6551 225.303 22.2342C224.963 22.8134 224.415 23.1974 223.66 23.3862L226.021 27.541H222.338L220.166 23.5751H217.522V27.541H214.122V14.3213ZM222.432 18.0983C222.432 17.3429 222.055 16.9652 221.299 16.9652H217.522V20.9311H221.299C222.055 20.9311 222.432 20.5534 222.432 19.798V18.0983Z" fill="white"/>
<g filter="url(#filter0_d)">
<path d="M121.517 25.246C121.899 25.7972 122.449 26.2117 123.084 26.4289C123.719 26.6461 124.407 26.6546 125.047 26.4533C125.688 26.2519 126.247 25.8511 126.644 25.3096C127.04 24.768 127.253 24.1139 127.251 23.4426C127.253 22.7714 127.04 22.1173 126.644 21.5757C126.247 21.0341 125.688 20.6334 125.047 20.432C124.407 20.2307 123.719 20.2392 123.084 20.4564C122.449 20.6736 121.899 21.0881 121.517 21.6393H120.038C120.038 18.8082 119.137 16.2295 117.513 14.0836L119.93 11.6672C120.939 11.8476 121.968 11.559 122.743 10.8197C123.952 9.57545 123.952 7.57378 122.743 6.31149C121.499 5.10329 119.497 5.10329 118.235 6.31149C117.495 7.0869 117.207 8.11475 117.387 9.12464L114.971 11.541C113.312 10.2967 111.364 9.46725 109.218 9.16068V6.63608C109.769 6.25316 110.184 5.70408 110.401 5.06898C110.618 4.43387 110.627 3.74597 110.425 3.10567C110.224 2.46536 109.823 1.90616 109.282 1.50967C108.74 1.11317 108.086 0.900139 107.415 0.90165C106.743 0.900139 106.089 1.11317 105.547 1.50967C105.006 1.90616 104.605 2.46536 104.404 3.10567C104.202 3.74597 104.211 4.43387 104.428 5.06898C104.645 5.70408 105.06 6.25316 105.611 6.63608V9.16068C103.988 9.39509 102.473 9.91806 101.103 10.7115L99.1007 7.84428C99.4438 6.90657 99.3533 5.8246 98.7403 4.95903C98.5027 4.61884 98.2005 4.32887 97.8503 4.10574C97.5002 3.88259 97.1098 3.73066 96.7014 3.65864C96.2922 3.58661 95.8736 3.59591 95.4683 3.68599C95.0631 3.77607 94.6798 3.94518 94.3399 4.18362C92.9156 5.17542 92.5552 7.141 93.5648 8.56556C94.1778 9.44923 95.152 9.91806 96.1435 9.91806L98.2713 12.9476C97.4962 13.723 96.8832 14.5885 96.3599 15.5443C95.7918 15.3221 95.1709 15.2687 94.5728 15.3902C93.9748 15.5118 93.4247 15.8032 92.988 16.2295C91.7792 17.4918 91.7792 19.4754 92.988 20.7377C93.5105 21.2246 94.1416 21.5131 94.7908 21.6393C94.7908 22.6131 94.9175 23.5508 95.1158 24.4525L92.7535 25.0836C91.9957 24.4525 90.9498 24.182 89.904 24.4525C89.0959 24.6725 88.4081 25.2046 87.9918 25.9316C87.5755 26.6587 87.4661 27.5212 87.6857 28.3295C87.906 29.1378 88.438 29.8255 89.1651 30.2415C89.8922 30.6574 90.7547 30.7675 91.5628 30.5476C92.5906 30.259 93.3665 29.5017 93.6907 28.5639L96.4142 27.8246C97.2255 29.2492 98.3075 30.5115 99.5698 31.5574L97.5859 35.1639C96.5944 35.3083 95.6926 35.8673 95.1701 36.823C94.9734 37.1876 94.8506 37.5875 94.8081 37.9996C94.7664 38.4118 94.8057 38.8281 94.9246 39.225C95.0434 39.6219 95.2393 39.9914 95.5014 40.3126C95.7626 40.6337 96.0853 40.9002 96.4504 41.0967C96.8147 41.2933 97.2145 41.4161 97.6268 41.4582C98.0392 41.5002 98.4555 41.4606 98.8521 41.3417C99.2495 41.2228 99.6185 41.0269 99.9396 40.7652C100.261 40.5035 100.527 40.1811 100.724 39.8164C101.229 38.8787 101.211 37.7968 100.76 36.9131L102.69 33.3607C104.15 33.9377 105.738 34.2623 107.415 34.2623H107.739C107.505 34.7311 107.415 35.2721 107.415 35.8492C107.559 37.5984 109.073 38.8968 110.805 38.7705C112.536 38.6442 113.852 37.1115 113.726 35.3803C113.654 34.4787 113.203 33.6853 112.554 33.1623C113.401 32.7836 114.214 32.2968 114.971 31.7378L119.191 35.9574C119.01 36.9672 119.299 37.9951 120.038 38.7705C121.301 39.9787 123.284 39.9787 124.547 38.7705C125.809 37.5623 125.755 35.5246 124.547 34.2623C123.771 33.523 122.743 33.2344 121.733 33.4148L117.513 29.1951C118.397 28.023 119.082 26.6886 119.515 25.246H121.517ZM104.709 21.6393C103.212 21.6393 102.004 20.4312 102.004 18.9344C102.004 17.4377 103.212 16.2295 104.709 16.2295C106.207 16.2295 107.415 17.4377 107.415 18.9344C107.415 20.4312 106.207 21.6393 104.709 21.6393ZM111.021 27.0492C110.029 27.0492 109.218 26.2377 109.218 25.246C109.218 24.2541 110.029 23.4426 111.021 23.4426C112.013 23.4426 112.825 24.2541 112.825 25.246C112.825 26.2377 112.013 27.0492 111.021 27.0492Z" fill="#CF002C"/>
</g>
<path d="M11.3316 27.3521C8.52384 27.6039 6.19456 27.7298 4.34373 27.7298C3.10984 27.7298 2.2033 27.4403 1.62413 26.8611C1.04496 26.282 0.755371 25.3755 0.755371 24.1416V18.0983C0.755371 16.7764 1.05125 15.8195 1.64302 15.2278C2.24737 14.6235 3.21056 14.3213 4.53259 14.3213H11.3316V16.9652H5.28803C4.53259 16.9652 4.15486 17.3429 4.15486 18.0983V24.1416C4.15486 24.4312 4.2367 24.6641 4.40038 24.8404C4.57665 25.0041 4.79699 25.0859 5.0614 25.0859C5.3258 25.0859 5.61539 25.0859 5.93016 25.0859C6.24492 25.0733 6.57228 25.0607 6.91223 25.0481C7.25218 25.0355 7.59213 25.0229 7.93208 25.0103C8.28462 24.9978 8.73159 24.9726 9.27299 24.9348C9.82698 24.897 10.5132 24.853 11.3316 24.8026V27.3521ZM24.1763 17.9095C24.1763 17.1541 23.7986 16.7764 23.0431 16.7764H19.8325C19.0771 16.7764 18.6993 17.1541 18.6993 17.9095V23.9528C18.6993 24.7082 19.0771 25.0859 19.8325 25.0859H23.0431C23.7986 25.0859 24.1763 24.7082 24.1763 23.9528V17.9095ZM27.5758 23.9528C27.5758 25.2747 27.2736 26.2379 26.6693 26.8422C26.0775 27.434 25.1206 27.7298 23.7986 27.7298H19.0771C17.755 27.7298 16.7919 27.434 16.1875 26.8422C15.5957 26.2379 15.2999 25.2747 15.2999 23.9528V17.9095C15.2999 16.5875 15.5957 15.6307 16.1875 15.0389C16.7919 14.4346 17.755 14.1324 19.0771 14.1324H23.7986C25.1206 14.1324 26.0775 14.4346 26.6693 15.0389C27.2736 15.6307 27.5758 16.5875 27.5758 17.9095V23.9528ZM32.3062 14.3213H40.2384C41.5604 14.3213 42.5173 14.6235 43.109 15.2278C43.7134 15.8195 44.0156 16.7764 44.0156 18.0983V19.798C44.0156 20.843 43.8393 21.6551 43.4868 22.2342C43.1468 22.8134 42.5991 23.1974 41.8437 23.3862L44.2044 27.541H40.5217L38.3498 23.5751H35.7057V27.541H32.3062V14.3213ZM40.6161 18.0983C40.6161 17.3429 40.2384 16.9652 39.4829 16.9652H35.7057V20.9311H39.4829C40.2384 20.9311 40.6161 20.5534 40.6161 19.798V18.0983ZM57.2306 17.9095C57.2306 17.1541 56.8529 16.7764 56.0975 16.7764H52.8868C52.1314 16.7764 51.7537 17.1541 51.7537 17.9095V23.9528C51.7537 24.7082 52.1314 25.0859 52.8868 25.0859H56.0975C56.8529 25.0859 57.2306 24.7082 57.2306 23.9528V17.9095ZM60.6301 23.9528C60.6301 25.2747 60.328 26.2379 59.7236 26.8422C59.1318 27.434 58.1749 27.7298 56.8529 27.7298H52.1314C50.8094 27.7298 49.8462 27.434 49.2418 26.8422C48.6501 26.2379 48.3542 25.2747 48.3542 23.9528V17.9095C48.3542 16.5875 48.6501 15.6307 49.2418 15.0389C49.8462 14.4346 50.8094 14.1324 52.1314 14.1324H56.8529C58.1749 14.1324 59.1318 14.4346 59.7236 15.0389C60.328 15.6307 60.6301 16.5875 60.6301 17.9095V23.9528ZM76.881 27.541H73.2927L68.76 19.6092V27.541H65.3605V14.3213H68.9489L73.4816 22.2531V14.3213H76.881V27.541ZM84.3499 27.541H80.6671L85.6719 14.3213H89.4491L94.4539 27.541H90.7711L89.9212 25.1803H85.1997L84.3499 27.541ZM86.0496 22.7252H89.0714L87.5605 18.2872L86.0496 22.7252Z" fill="white"/>
</g>
<defs>
<filter id="filter0_d" x="83.575" y="0.901642" width="47.6763" height="48.5728" filterUnits="userSpaceOnUse" color-interpolation-filters="sRGB">
<feFlood flood-opacity="0" result="BackgroundImageFix"/>
<feColorMatrix in="SourceAlpha" type="matrix" values="0 0 0 0 0 0 0 0 0 0 0 0 0 0 0 0 0 0 127 0"/>
<feOffset dy="4"/>
<feGaussianBlur stdDeviation="2"/>
<feColorMatrix type="matrix" values="0 0 0 0 0 0 0 0 0 0 0 0 0 0 0 0 0 0 0.25 0"/>
<feBlend mode="normal" in2="BackgroundImageFix" result="effect1_dropShadow"/>
<feBlend mode="normal" in="SourceGraphic" in2="effect1_dropShadow" result="shape"/>
</filter>
<clipPath id="clip0">
<rect width="226.633" height="48" fill="white"/>
</clipPath>
</defs>
</svg>
